<mxfile host="Electron" modified="2024-06-20T04:45:09.737Z" agent="Mozilla/5.0 (X11; Linux x86_64) AppleWebKit/537.36 (KHTML, like Gecko) draw.io/24.5.1 Chrome/124.0.6367.207 Electron/30.0.6 Safari/537.36" etag="48gxDhFTE3eb3oL48PjA" version="24.5.1" type="device" pages="2">
  <diagram name="MCD" id="Z05wgaMLPizasvSe_iwF">
    <mxGraphModel dx="858" dy="543" grid="1" gridSize="10" guides="1" tooltips="1" connect="1" arrows="1" fold="1" page="1" pageScale="1" pageWidth="827" pageHeight="1169" background="none" math="0" shadow="0">
      <root>
        <mxCell id="0" />
        <mxCell id="1" parent="0" />
        <mxCell id="VNDBeAea5MQbgjooVeQn-120" value="ETUDIANT" style="swimlane;childLayout=stackLayout;horizontal=1;startSize=50;horizontalStack=0;rounded=0;fontSize=14;fontStyle=0;strokeWidth=1;resizeParent=0;resizeLast=1;shadow=0;dashed=0;align=center;arcSize=4;whiteSpace=wrap;html=1;glass=0;swimlaneLine=1;" parent="1" vertex="1">
          <mxGeometry x="110" y="475" width="120" height="150" as="geometry">
            <mxRectangle x="490" y="90" width="90" height="50" as="alternateBounds" />
          </mxGeometry>
        </mxCell>
        <mxCell id="VNDBeAea5MQbgjooVeQn-121" value="&lt;u&gt;IdEt&lt;/u&gt;&lt;br&gt;NomEt&lt;div&gt;PrenomEt&lt;/div&gt;&lt;div&gt;AdresseEt&lt;/div&gt;&lt;div&gt;EmailEt&lt;/div&gt;&lt;div&gt;NumTelephoneEt&lt;/div&gt;" style="align=left;strokeColor=none;fillColor=none;spacingLeft=4;fontSize=12;verticalAlign=top;resizable=0;rotatable=0;part=1;html=1;rounded=0;" parent="VNDBeAea5MQbgjooVeQn-120" vertex="1">
          <mxGeometry y="50" width="120" height="100" as="geometry" />
        </mxCell>
        <mxCell id="VNDBeAea5MQbgjooVeQn-139" value="NIVEAU" style="swimlane;childLayout=stackLayout;horizontal=1;startSize=50;horizontalStack=0;rounded=0;fontSize=14;fontStyle=0;strokeWidth=1;resizeParent=0;resizeLast=1;shadow=0;dashed=0;align=center;arcSize=4;whiteSpace=wrap;html=1;" parent="1" vertex="1">
          <mxGeometry x="354" y="649" width="120" height="100" as="geometry" />
        </mxCell>
        <mxCell id="VNDBeAea5MQbgjooVeQn-140" value="&lt;u&gt;IdNiveau&lt;/u&gt;&lt;div&gt;NomNiveau&lt;/div&gt;" style="align=left;strokeColor=none;fillColor=none;spacingLeft=4;fontSize=12;verticalAlign=top;resizable=0;rotatable=0;part=1;html=1;" parent="VNDBeAea5MQbgjooVeQn-139" vertex="1">
          <mxGeometry y="50" width="120" height="50" as="geometry" />
        </mxCell>
        <mxCell id="VNDBeAea5MQbgjooVeQn-141" value="PARCOURS" style="swimlane;childLayout=stackLayout;horizontal=1;startSize=50;horizontalStack=0;rounded=0;fontSize=14;fontStyle=0;strokeWidth=1;resizeParent=0;resizeLast=1;shadow=0;dashed=0;align=center;arcSize=4;whiteSpace=wrap;html=1;" parent="1" vertex="1">
          <mxGeometry x="354" y="351" width="120" height="100" as="geometry" />
        </mxCell>
        <mxCell id="VNDBeAea5MQbgjooVeQn-142" value="&lt;u&gt;IdParcours&lt;/u&gt;&lt;div&gt;NomParcours&lt;/div&gt;" style="align=left;strokeColor=none;fillColor=none;spacingLeft=4;fontSize=12;verticalAlign=top;resizable=0;rotatable=0;part=1;html=1;" parent="VNDBeAea5MQbgjooVeQn-141" vertex="1">
          <mxGeometry y="50" width="120" height="50" as="geometry" />
        </mxCell>
        <mxCell id="n4uwK2Je5_BCINw1PJ4D-25" style="edgeStyle=orthogonalEdgeStyle;rounded=0;orthogonalLoop=1;jettySize=auto;html=1;entryX=0.5;entryY=1;entryDx=0;entryDy=0;endArrow=none;endFill=0;exitX=0.5;exitY=0;exitDx=0;exitDy=0;" parent="1" source="a59o5ENuI0x_Ca8bcvk9-13" target="VNDBeAea5MQbgjooVeQn-121" edge="1">
          <mxGeometry relative="1" as="geometry">
            <mxPoint x="642" y="649" as="sourcePoint" />
            <mxPoint x="582" y="647" as="targetPoint" />
          </mxGeometry>
        </mxCell>
        <mxCell id="n4uwK2Je5_BCINw1PJ4D-26" value="1, n" style="edgeLabel;html=1;align=center;verticalAlign=middle;resizable=0;points=[];" parent="n4uwK2Je5_BCINw1PJ4D-25" vertex="1" connectable="0">
          <mxGeometry x="0.475" y="2" relative="1" as="geometry">
            <mxPoint y="-3" as="offset" />
          </mxGeometry>
        </mxCell>
        <mxCell id="n4uwK2Je5_BCINw1PJ4D-28" value="COURS" style="swimlane;childLayout=stackLayout;horizontal=1;startSize=50;horizontalStack=0;rounded=0;fontSize=14;fontStyle=0;strokeWidth=1;resizeParent=0;resizeLast=1;shadow=0;dashed=0;align=center;arcSize=4;whiteSpace=wrap;html=1;" parent="1" vertex="1">
          <mxGeometry x="354" y="764" width="120" height="118" as="geometry" />
        </mxCell>
        <mxCell id="n4uwK2Je5_BCINw1PJ4D-29" value="&lt;u&gt;DateCours&lt;/u&gt;&lt;div&gt;&lt;u&gt;HeureDebutCours&lt;/u&gt;&lt;/div&gt;&lt;div&gt;HeureFinCours&lt;/div&gt;" style="align=left;strokeColor=none;fillColor=none;spacingLeft=4;fontSize=12;verticalAlign=top;resizable=0;rotatable=0;part=1;html=1;" parent="n4uwK2Je5_BCINw1PJ4D-28" vertex="1">
          <mxGeometry y="50" width="120" height="68" as="geometry" />
        </mxCell>
        <mxCell id="n4uwK2Je5_BCINw1PJ4D-30" style="edgeStyle=orthogonalEdgeStyle;rounded=0;orthogonalLoop=1;jettySize=auto;html=1;entryX=0;entryY=0.25;entryDx=0;entryDy=0;endArrow=none;endFill=0;exitX=0.975;exitY=0.501;exitDx=0;exitDy=0;exitPerimeter=0;" parent="1" source="a59o5ENuI0x_Ca8bcvk9-15" target="n4uwK2Je5_BCINw1PJ4D-29" edge="1">
          <mxGeometry relative="1" as="geometry">
            <mxPoint x="690" y="729" as="sourcePoint" />
            <mxPoint x="657" y="891" as="targetPoint" />
          </mxGeometry>
        </mxCell>
        <mxCell id="n4uwK2Je5_BCINw1PJ4D-31" value="1, n" style="edgeLabel;html=1;align=center;verticalAlign=middle;resizable=0;points=[];" parent="n4uwK2Je5_BCINw1PJ4D-30" vertex="1" connectable="0">
          <mxGeometry x="0.475" y="2" relative="1" as="geometry">
            <mxPoint x="-3" as="offset" />
          </mxGeometry>
        </mxCell>
        <mxCell id="XUoQNJqGaztIyCKMaqm2-1" style="rounded=0;orthogonalLoop=1;jettySize=auto;html=1;entryX=0.25;entryY=0;entryDx=0;entryDy=0;endArrow=none;endFill=0;exitX=0.5;exitY=1;exitDx=0;exitDy=0;" parent="1" source="a59o5ENuI0x_Ca8bcvk9-5" target="VNDBeAea5MQbgjooVeQn-139" edge="1">
          <mxGeometry relative="1" as="geometry">
            <mxPoint x="259.00800000000004" y="562.9990677280086" as="sourcePoint" />
            <mxPoint x="200.96000000000004" y="623" as="targetPoint" />
          </mxGeometry>
        </mxCell>
        <mxCell id="XUoQNJqGaztIyCKMaqm2-2" value="1, n" style="edgeLabel;html=1;align=center;verticalAlign=middle;resizable=0;points=[];" parent="XUoQNJqGaztIyCKMaqm2-1" vertex="1" connectable="0">
          <mxGeometry x="0.475" y="2" relative="1" as="geometry">
            <mxPoint x="-2" y="3" as="offset" />
          </mxGeometry>
        </mxCell>
        <mxCell id="7YzZ0mCuJ2MnG_bpv5yt-4" style="rounded=0;orthogonalLoop=1;jettySize=auto;html=1;entryX=0.25;entryY=1;entryDx=0;entryDy=0;endArrow=none;endFill=0;exitX=0.5;exitY=0;exitDx=0;exitDy=0;" parent="1" source="a59o5ENuI0x_Ca8bcvk9-5" target="VNDBeAea5MQbgjooVeQn-142" edge="1">
          <mxGeometry relative="1" as="geometry" />
        </mxCell>
        <mxCell id="7YzZ0mCuJ2MnG_bpv5yt-5" value="1, n" style="edgeLabel;html=1;align=center;verticalAlign=middle;resizable=0;points=[];" parent="7YzZ0mCuJ2MnG_bpv5yt-4" vertex="1" connectable="0">
          <mxGeometry x="0.7051" y="3" relative="1" as="geometry">
            <mxPoint y="5" as="offset" />
          </mxGeometry>
        </mxCell>
        <mxCell id="a59o5ENuI0x_Ca8bcvk9-5" value="" style="shape=ellipse;container=1;horizontal=1;horizontalStack=0;resizeParent=1;resizeParentMax=0;resizeLast=0;html=1;dashed=0;collapsible=0;" parent="1" vertex="1">
          <mxGeometry x="290" y="515" width="120" height="70" as="geometry" />
        </mxCell>
        <mxCell id="a59o5ENuI0x_Ca8bcvk9-6" value="INSCRIPTION" style="html=1;strokeColor=none;fillColor=none;align=center;verticalAlign=middle;rotatable=0;whiteSpace=wrap;" parent="a59o5ENuI0x_Ca8bcvk9-5" vertex="1">
          <mxGeometry y="16.79946668359735" width="119.99999999999999" height="17.49944446208057" as="geometry" />
        </mxCell>
        <mxCell id="a59o5ENuI0x_Ca8bcvk9-7" value="" style="line;strokeWidth=1;fillColor=none;rotatable=0;labelPosition=right;points=[];portConstraint=eastwest;dashed=0;resizeWidth=1;" parent="a59o5ENuI0x_Ca8bcvk9-5" vertex="1">
          <mxGeometry y="33.05450620615219" width="119.99999999999999" height="5.830814894765246" as="geometry" />
        </mxCell>
        <mxCell id="7YzZ0mCuJ2MnG_bpv5yt-6" value="AnneeInsc" style="html=1;strokeColor=none;fillColor=none;align=center;verticalAlign=middle;rotatable=0;whiteSpace=wrap;" parent="a59o5ENuI0x_Ca8bcvk9-5" vertex="1">
          <mxGeometry y="38.8900000000001" width="120" height="17.5" as="geometry" />
        </mxCell>
        <mxCell id="a59o5ENuI0x_Ca8bcvk9-10" style="rounded=0;orthogonalLoop=1;jettySize=auto;html=1;entryX=1;entryY=0.25;entryDx=0;entryDy=0;endArrow=none;endFill=0;exitX=0;exitY=0.5;exitDx=0;exitDy=0;" parent="1" source="a59o5ENuI0x_Ca8bcvk9-5" target="VNDBeAea5MQbgjooVeQn-121" edge="1">
          <mxGeometry relative="1" as="geometry">
            <mxPoint x="450" y="546" as="sourcePoint" />
            <mxPoint x="370" y="546" as="targetPoint" />
          </mxGeometry>
        </mxCell>
        <mxCell id="a59o5ENuI0x_Ca8bcvk9-11" value="1, n" style="edgeLabel;html=1;align=center;verticalAlign=middle;resizable=0;points=[];" parent="a59o5ENuI0x_Ca8bcvk9-10" vertex="1" connectable="0">
          <mxGeometry x="0.475" y="2" relative="1" as="geometry">
            <mxPoint x="1" y="-2" as="offset" />
          </mxGeometry>
        </mxCell>
        <mxCell id="a59o5ENuI0x_Ca8bcvk9-13" value="" style="shape=ellipse;container=1;horizontal=1;horizontalStack=0;resizeParent=1;resizeParentMax=0;resizeLast=0;html=1;dashed=0;collapsible=0;" parent="1" vertex="1">
          <mxGeometry x="110" y="796" width="120" height="70" as="geometry" />
        </mxCell>
        <mxCell id="a59o5ENuI0x_Ca8bcvk9-14" value="ASSISTER" style="html=1;strokeColor=none;fillColor=none;align=center;verticalAlign=middle;rotatable=0;whiteSpace=wrap;" parent="a59o5ENuI0x_Ca8bcvk9-13" vertex="1">
          <mxGeometry y="16.8" width="120" height="17.5" as="geometry" />
        </mxCell>
        <mxCell id="a59o5ENuI0x_Ca8bcvk9-15" value="" style="line;strokeWidth=1;fillColor=none;rotatable=0;labelPosition=right;points=[];portConstraint=eastwest;dashed=0;resizeWidth=1;" parent="a59o5ENuI0x_Ca8bcvk9-13" vertex="1">
          <mxGeometry y="32.08" width="120" height="5.831" as="geometry" />
        </mxCell>
        <mxCell id="a59o5ENuI0x_Ca8bcvk9-35" value="PresenceEt&lt;div&gt;JustificationEt&lt;/div&gt;" style="html=1;strokeColor=none;fillColor=none;align=center;verticalAlign=middle;rotatable=0;whiteSpace=wrap;" parent="a59o5ENuI0x_Ca8bcvk9-13" vertex="1">
          <mxGeometry y="37.91" width="120" height="22.09" as="geometry" />
        </mxCell>
        <mxCell id="a59o5ENuI0x_Ca8bcvk9-26" style="edgeStyle=orthogonalEdgeStyle;rounded=0;orthogonalLoop=1;jettySize=auto;html=1;entryX=0.5;entryY=1;entryDx=0;entryDy=0;endArrow=none;endFill=0;exitX=0.5;exitY=0;exitDx=0;exitDy=0;" parent="1" source="a59o5ENuI0x_Ca8bcvk9-30" target="a59o5ENuI0x_Ca8bcvk9-34" edge="1">
          <mxGeometry relative="1" as="geometry">
            <mxPoint x="590" y="408" as="sourcePoint" />
            <mxPoint x="530" y="409" as="targetPoint" />
          </mxGeometry>
        </mxCell>
        <mxCell id="a59o5ENuI0x_Ca8bcvk9-27" value="1, n" style="edgeLabel;html=1;align=center;verticalAlign=middle;resizable=0;points=[];" parent="a59o5ENuI0x_Ca8bcvk9-26" vertex="1" connectable="0">
          <mxGeometry x="0.475" y="2" relative="1" as="geometry">
            <mxPoint x="1" y="-3" as="offset" />
          </mxGeometry>
        </mxCell>
        <mxCell id="a59o5ENuI0x_Ca8bcvk9-28" style="edgeStyle=orthogonalEdgeStyle;rounded=0;orthogonalLoop=1;jettySize=auto;html=1;endArrow=none;endFill=0;exitX=0;exitY=0.5;exitDx=0;exitDy=0;entryX=1;entryY=0.25;entryDx=0;entryDy=0;" parent="1" source="a59o5ENuI0x_Ca8bcvk9-30" target="n4uwK2Je5_BCINw1PJ4D-29" edge="1">
          <mxGeometry relative="1" as="geometry">
            <mxPoint x="720" y="433" as="sourcePoint" />
            <mxPoint x="760" y="530" as="targetPoint" />
          </mxGeometry>
        </mxCell>
        <mxCell id="a59o5ENuI0x_Ca8bcvk9-29" value="1, 1" style="edgeLabel;html=1;align=center;verticalAlign=middle;resizable=0;points=[];" parent="a59o5ENuI0x_Ca8bcvk9-28" vertex="1" connectable="0">
          <mxGeometry x="0.475" y="2" relative="1" as="geometry">
            <mxPoint x="-1" y="-4" as="offset" />
          </mxGeometry>
        </mxCell>
        <mxCell id="a59o5ENuI0x_Ca8bcvk9-30" value="" style="shape=ellipse;container=1;horizontal=1;horizontalStack=0;resizeParent=1;resizeParentMax=0;resizeLast=0;html=1;dashed=0;collapsible=0;" parent="1" vertex="1">
          <mxGeometry x="600" y="796" width="120" height="70" as="geometry" />
        </mxCell>
        <mxCell id="a59o5ENuI0x_Ca8bcvk9-31" value="S&#39;EFFECTUER" style="html=1;strokeColor=none;fillColor=none;align=center;verticalAlign=middle;rotatable=0;whiteSpace=wrap;" parent="a59o5ENuI0x_Ca8bcvk9-30" vertex="1">
          <mxGeometry y="16.8" width="120" height="17.5" as="geometry" />
        </mxCell>
        <mxCell id="a59o5ENuI0x_Ca8bcvk9-32" value="" style="line;strokeWidth=1;fillColor=none;rotatable=0;labelPosition=right;points=[];portConstraint=eastwest;dashed=0;resizeWidth=1;" parent="a59o5ENuI0x_Ca8bcvk9-30" vertex="1">
          <mxGeometry y="32.09" width="120" height="5.83" as="geometry" />
        </mxCell>
        <mxCell id="a59o5ENuI0x_Ca8bcvk9-33" value="MATIERE" style="swimlane;childLayout=stackLayout;horizontal=1;startSize=50;horizontalStack=0;rounded=0;fontSize=14;fontStyle=0;strokeWidth=1;resizeParent=0;resizeLast=1;shadow=0;dashed=0;align=center;arcSize=4;whiteSpace=wrap;html=1;" parent="1" vertex="1">
          <mxGeometry x="600" y="483" width="120" height="118" as="geometry">
            <mxRectangle x="600" y="483" width="100" height="50" as="alternateBounds" />
          </mxGeometry>
        </mxCell>
        <mxCell id="a59o5ENuI0x_Ca8bcvk9-34" value="&lt;u&gt;IdMat&lt;/u&gt;&lt;div&gt;NomMat&lt;/div&gt;&lt;div&gt;NbHeureMat&lt;/div&gt;" style="align=left;strokeColor=none;fillColor=none;spacingLeft=4;fontSize=12;verticalAlign=top;resizable=0;rotatable=0;part=1;html=1;" parent="a59o5ENuI0x_Ca8bcvk9-33" vertex="1">
          <mxGeometry y="50" width="120" height="68" as="geometry" />
        </mxCell>
        <mxCell id="a59o5ENuI0x_Ca8bcvk9-36" style="rounded=0;orthogonalLoop=1;jettySize=auto;html=1;entryX=0;entryY=0.25;entryDx=0;entryDy=0;endArrow=none;endFill=0;exitX=1;exitY=0.5;exitDx=0;exitDy=0;" parent="1" source="a59o5ENuI0x_Ca8bcvk9-38" target="a59o5ENuI0x_Ca8bcvk9-34" edge="1">
          <mxGeometry relative="1" as="geometry">
            <mxPoint x="359" y="404" as="sourcePoint" />
            <mxPoint x="420" y="413" as="targetPoint" />
          </mxGeometry>
        </mxCell>
        <mxCell id="a59o5ENuI0x_Ca8bcvk9-38" value="" style="shape=ellipse;container=1;horizontal=1;horizontalStack=0;resizeParent=1;resizeParentMax=0;resizeLast=0;html=1;dashed=0;collapsible=0;" parent="1" vertex="1">
          <mxGeometry x="422" y="515" width="120" height="70" as="geometry" />
        </mxCell>
        <mxCell id="a59o5ENuI0x_Ca8bcvk9-39" value="ASSOCIE A" style="html=1;strokeColor=none;fillColor=none;align=center;verticalAlign=middle;rotatable=0;whiteSpace=wrap;" parent="a59o5ENuI0x_Ca8bcvk9-38" vertex="1">
          <mxGeometry y="16.8" width="120" height="17.5" as="geometry" />
        </mxCell>
        <mxCell id="a59o5ENuI0x_Ca8bcvk9-40" value="" style="line;strokeWidth=1;fillColor=none;rotatable=0;labelPosition=right;points=[];portConstraint=eastwest;dashed=0;resizeWidth=1;" parent="a59o5ENuI0x_Ca8bcvk9-38" vertex="1">
          <mxGeometry y="32.09" width="120" height="5.83" as="geometry" />
        </mxCell>
        <mxCell id="a59o5ENuI0x_Ca8bcvk9-41" style="rounded=0;orthogonalLoop=1;jettySize=auto;html=1;entryX=0.75;entryY=0;entryDx=0;entryDy=0;endArrow=none;endFill=0;exitX=0.5;exitY=1;exitDx=0;exitDy=0;" parent="1" source="a59o5ENuI0x_Ca8bcvk9-38" target="VNDBeAea5MQbgjooVeQn-139" edge="1">
          <mxGeometry relative="1" as="geometry">
            <mxPoint x="420" y="879" as="sourcePoint" />
            <mxPoint x="340" y="879" as="targetPoint" />
          </mxGeometry>
        </mxCell>
        <mxCell id="a59o5ENuI0x_Ca8bcvk9-44" value="ENSEIGNANT" style="swimlane;childLayout=stackLayout;horizontal=1;startSize=50;horizontalStack=0;rounded=0;fontSize=14;fontStyle=0;strokeWidth=1;resizeParent=0;resizeLast=1;shadow=0;dashed=0;align=center;arcSize=4;whiteSpace=wrap;html=1;" parent="1" vertex="1">
          <mxGeometry x="600" y="150" width="120" height="118" as="geometry" />
        </mxCell>
        <mxCell id="a59o5ENuI0x_Ca8bcvk9-45" value="&lt;u&gt;IdEns&lt;/u&gt;&lt;div&gt;NomEns&lt;/div&gt;&lt;div&gt;PrenomEns&lt;/div&gt;" style="align=left;strokeColor=none;fillColor=none;spacingLeft=4;fontSize=12;verticalAlign=top;resizable=0;rotatable=0;part=1;html=1;" parent="a59o5ENuI0x_Ca8bcvk9-44" vertex="1">
          <mxGeometry y="50" width="120" height="68" as="geometry" />
        </mxCell>
        <mxCell id="a59o5ENuI0x_Ca8bcvk9-46" style="edgeStyle=orthogonalEdgeStyle;rounded=0;orthogonalLoop=1;jettySize=auto;html=1;entryX=0.5;entryY=1;entryDx=0;entryDy=0;endArrow=none;endFill=0;exitX=0.5;exitY=0;exitDx=0;exitDy=0;" parent="1" source="a59o5ENuI0x_Ca8bcvk9-48" target="a59o5ENuI0x_Ca8bcvk9-45" edge="1">
          <mxGeometry relative="1" as="geometry">
            <mxPoint x="359" y="84" as="sourcePoint" />
            <mxPoint x="420" y="93" as="targetPoint" />
          </mxGeometry>
        </mxCell>
        <mxCell id="a59o5ENuI0x_Ca8bcvk9-47" value="1, n" style="edgeLabel;html=1;align=center;verticalAlign=middle;resizable=0;points=[];" parent="a59o5ENuI0x_Ca8bcvk9-46" vertex="1" connectable="0">
          <mxGeometry x="0.475" y="2" relative="1" as="geometry">
            <mxPoint y="1" as="offset" />
          </mxGeometry>
        </mxCell>
        <mxCell id="a59o5ENuI0x_Ca8bcvk9-48" value="" style="shape=ellipse;container=1;horizontal=1;horizontalStack=0;resizeParent=1;resizeParentMax=0;resizeLast=0;html=1;dashed=0;collapsible=0;" parent="1" vertex="1">
          <mxGeometry x="600" y="350" width="120" height="70" as="geometry" />
        </mxCell>
        <mxCell id="a59o5ENuI0x_Ca8bcvk9-49" value="ENSEIGNER" style="html=1;strokeColor=none;fillColor=none;align=center;verticalAlign=middle;rotatable=0;whiteSpace=wrap;" parent="a59o5ENuI0x_Ca8bcvk9-48" vertex="1">
          <mxGeometry y="16.8" width="120" height="17.5" as="geometry" />
        </mxCell>
        <mxCell id="a59o5ENuI0x_Ca8bcvk9-50" value="" style="line;strokeWidth=1;fillColor=none;rotatable=0;labelPosition=right;points=[];portConstraint=eastwest;dashed=0;resizeWidth=1;" parent="a59o5ENuI0x_Ca8bcvk9-48" vertex="1">
          <mxGeometry y="32.09" width="120" height="5.83" as="geometry" />
        </mxCell>
        <mxCell id="a59o5ENuI0x_Ca8bcvk9-51" style="edgeStyle=orthogonalEdgeStyle;rounded=0;orthogonalLoop=1;jettySize=auto;html=1;entryX=0.5;entryY=0;entryDx=0;entryDy=0;endArrow=none;endFill=0;exitX=0.5;exitY=1;exitDx=0;exitDy=0;" parent="1" source="a59o5ENuI0x_Ca8bcvk9-48" target="a59o5ENuI0x_Ca8bcvk9-33" edge="1">
          <mxGeometry relative="1" as="geometry">
            <mxPoint x="600" y="779" as="sourcePoint" />
            <mxPoint x="320" y="629" as="targetPoint" />
          </mxGeometry>
        </mxCell>
        <mxCell id="a59o5ENuI0x_Ca8bcvk9-52" value="1, 1" style="edgeLabel;html=1;align=center;verticalAlign=middle;resizable=0;points=[];" parent="a59o5ENuI0x_Ca8bcvk9-51" vertex="1" connectable="0">
          <mxGeometry x="0.475" y="2" relative="1" as="geometry">
            <mxPoint x="-3" y="-6" as="offset" />
          </mxGeometry>
        </mxCell>
        <mxCell id="7YzZ0mCuJ2MnG_bpv5yt-1" style="rounded=0;orthogonalLoop=1;jettySize=auto;html=1;exitX=0.5;exitY=0;exitDx=0;exitDy=0;entryX=0.75;entryY=1;entryDx=0;entryDy=0;endArrow=none;endFill=0;" parent="1" source="a59o5ENuI0x_Ca8bcvk9-38" target="VNDBeAea5MQbgjooVeQn-142" edge="1">
          <mxGeometry relative="1" as="geometry" />
        </mxCell>
        <mxCell id="o5wXHODZEdz9iiEyLHSb-5" value="1, n" style="edgeLabel;html=1;align=center;verticalAlign=middle;resizable=0;points=[];" vertex="1" connectable="0" parent="1">
          <mxGeometry x="451.9982768512562" y="463.99935971575525" as="geometry" />
        </mxCell>
        <mxCell id="o5wXHODZEdz9iiEyLHSb-6" value="1, n" style="edgeLabel;html=1;align=center;verticalAlign=middle;resizable=0;points=[];" vertex="1" connectable="0" parent="1">
          <mxGeometry x="451.9982768512562" y="633.9993597157552" as="geometry" />
        </mxCell>
        <mxCell id="o5wXHODZEdz9iiEyLHSb-7" value="1, n" style="edgeLabel;html=1;align=center;verticalAlign=middle;resizable=0;points=[];" vertex="1" connectable="0" parent="1">
          <mxGeometry x="579.9982768512562" y="549.9993597157552" as="geometry" />
        </mxCell>
      </root>
    </mxGraphModel>
  </diagram>
  <diagram id="UaehBLaesx9bEVcJ2zjp" name="MLD">
    <mxGraphModel dx="858" dy="543" grid="1" gridSize="10" guides="1" tooltips="1" connect="1" arrows="1" fold="1" page="1" pageScale="1" pageWidth="827" pageHeight="1169" math="0" shadow="0">
      <root>
        <mxCell id="0" />
        <mxCell id="1" parent="0" />
        <mxCell id="YZHA83_D1_kwzSXFL9r3-1" value="PARCOURS" style="swimlane;childLayout=stackLayout;horizontal=1;startSize=50;horizontalStack=0;rounded=0;fontSize=14;fontStyle=0;strokeWidth=1;resizeParent=0;resizeLast=1;shadow=0;dashed=0;align=center;arcSize=4;whiteSpace=wrap;html=1;" parent="1" vertex="1">
          <mxGeometry x="354" y="112" width="120" height="100" as="geometry" />
        </mxCell>
        <mxCell id="YZHA83_D1_kwzSXFL9r3-2" value="&lt;u&gt;IdParcours&lt;/u&gt;&lt;div&gt;NomParcours&lt;/div&gt;" style="align=left;strokeColor=none;fillColor=none;spacingLeft=4;fontSize=12;verticalAlign=top;resizable=0;rotatable=0;part=1;html=1;" parent="YZHA83_D1_kwzSXFL9r3-1" vertex="1">
          <mxGeometry y="50" width="120" height="50" as="geometry" />
        </mxCell>
        <mxCell id="YZHA83_D1_kwzSXFL9r3-3" style="edgeStyle=orthogonalEdgeStyle;rounded=0;orthogonalLoop=1;jettySize=auto;html=1;exitX=0.5;exitY=0;exitDx=0;exitDy=0;entryX=0;entryY=0.5;entryDx=0;entryDy=0;" parent="1" source="YZHA83_D1_kwzSXFL9r3-4" target="YZHA83_D1_kwzSXFL9r3-2" edge="1">
          <mxGeometry relative="1" as="geometry" />
        </mxCell>
        <mxCell id="YZHA83_D1_kwzSXFL9r3-4" value="INSCRIPTION" style="swimlane;childLayout=stackLayout;horizontal=1;startSize=50;horizontalStack=0;rounded=0;fontSize=14;fontStyle=0;strokeWidth=1;resizeParent=0;resizeLast=1;shadow=0;dashed=0;align=center;arcSize=4;whiteSpace=wrap;html=1;" parent="1" vertex="1">
          <mxGeometry x="230" y="260" width="160" height="120" as="geometry" />
        </mxCell>
        <mxCell id="YZHA83_D1_kwzSXFL9r3-5" value="&lt;u&gt;IdEt&lt;/u&gt;&lt;div&gt;&lt;u&gt;IdParcours&lt;/u&gt;&lt;div&gt;&lt;u&gt;IdNiveau&lt;/u&gt;&lt;/div&gt;&lt;/div&gt;&lt;div&gt;AnneeInsc&lt;/div&gt;" style="align=left;strokeColor=none;fillColor=none;spacingLeft=4;fontSize=12;verticalAlign=top;resizable=0;rotatable=0;part=1;html=1;" parent="YZHA83_D1_kwzSXFL9r3-4" vertex="1">
          <mxGeometry y="50" width="160" height="70" as="geometry" />
        </mxCell>
        <mxCell id="YZHA83_D1_kwzSXFL9r3-6" value="NIVEAU" style="swimlane;childLayout=stackLayout;horizontal=1;startSize=50;horizontalStack=0;rounded=0;fontSize=14;fontStyle=0;strokeWidth=1;resizeParent=0;resizeLast=1;shadow=0;dashed=0;align=center;arcSize=4;whiteSpace=wrap;html=1;" parent="1" vertex="1">
          <mxGeometry x="354" y="452" width="120" height="120" as="geometry" />
        </mxCell>
        <mxCell id="YZHA83_D1_kwzSXFL9r3-7" value="&lt;u&gt;IdNiveau&lt;/u&gt;&lt;div&gt;NomNiveau&lt;/div&gt;" style="align=left;strokeColor=none;fillColor=none;spacingLeft=4;fontSize=12;verticalAlign=top;resizable=0;rotatable=0;part=1;html=1;" parent="YZHA83_D1_kwzSXFL9r3-6" vertex="1">
          <mxGeometry y="50" width="120" height="70" as="geometry" />
        </mxCell>
        <mxCell id="YZHA83_D1_kwzSXFL9r3-10" value="ETUDIANT" style="swimlane;childLayout=stackLayout;horizontal=1;startSize=50;horizontalStack=0;rounded=0;fontSize=14;fontStyle=0;strokeWidth=1;resizeParent=0;resizeLast=1;shadow=0;dashed=0;align=center;arcSize=4;whiteSpace=wrap;html=1;" parent="1" vertex="1">
          <mxGeometry x="100" y="430" width="120" height="160" as="geometry" />
        </mxCell>
        <mxCell id="YZHA83_D1_kwzSXFL9r3-11" value="&lt;u&gt;IdEt&lt;/u&gt;&lt;div&gt;Nom&lt;span style=&quot;background-color: initial;&quot;&gt;Et&lt;/span&gt;&lt;/div&gt;&lt;div&gt;Prenom&lt;span style=&quot;background-color: initial;&quot;&gt;Et&lt;/span&gt;&lt;/div&gt;&lt;div&gt;Adresse&lt;span style=&quot;background-color: initial;&quot;&gt;Et&lt;/span&gt;&lt;/div&gt;&lt;div&gt;Email&lt;span style=&quot;background-color: initial;&quot;&gt;Et&lt;/span&gt;&lt;/div&gt;&lt;div&gt;NumTel&lt;span style=&quot;background-color: initial;&quot;&gt;Et&lt;/span&gt;&lt;/div&gt;" style="align=left;strokeColor=none;fillColor=none;spacingLeft=4;fontSize=12;verticalAlign=top;resizable=0;rotatable=0;part=1;html=1;" parent="YZHA83_D1_kwzSXFL9r3-10" vertex="1">
          <mxGeometry y="50" width="120" height="110" as="geometry" />
        </mxCell>
        <mxCell id="YZHA83_D1_kwzSXFL9r3-12" style="edgeStyle=orthogonalEdgeStyle;rounded=0;orthogonalLoop=1;jettySize=auto;html=1;exitX=0;exitY=0.5;exitDx=0;exitDy=0;entryX=0.5;entryY=1;entryDx=0;entryDy=0;" parent="1" source="YZHA83_D1_kwzSXFL9r3-14" target="YZHA83_D1_kwzSXFL9r3-11" edge="1">
          <mxGeometry relative="1" as="geometry" />
        </mxCell>
        <mxCell id="YZHA83_D1_kwzSXFL9r3-13" value="ETUDIANT_COURS" style="swimlane;childLayout=stackLayout;horizontal=1;startSize=50;horizontalStack=0;rounded=0;fontSize=14;fontStyle=0;strokeWidth=1;resizeParent=0;resizeLast=1;shadow=0;dashed=0;align=center;arcSize=4;whiteSpace=wrap;html=1;" parent="1" vertex="1">
          <mxGeometry x="240" y="661.5" width="140" height="140" as="geometry" />
        </mxCell>
        <mxCell id="YZHA83_D1_kwzSXFL9r3-14" value="&lt;u&gt;IdEt&lt;/u&gt;&lt;div&gt;&lt;u&gt;DateCours&lt;/u&gt;&lt;/div&gt;&lt;div&gt;&lt;u&gt;HeureDebutCours&lt;/u&gt;&lt;/div&gt;&lt;div&gt;PresenceEt&lt;/div&gt;&lt;div&gt;JustificationEt&lt;/div&gt;" style="align=left;strokeColor=none;fillColor=none;spacingLeft=4;fontSize=12;verticalAlign=top;resizable=0;rotatable=0;part=1;html=1;" parent="YZHA83_D1_kwzSXFL9r3-13" vertex="1">
          <mxGeometry y="50" width="140" height="90" as="geometry" />
        </mxCell>
        <mxCell id="YZHA83_D1_kwzSXFL9r3-15" value="COURS" style="swimlane;childLayout=stackLayout;horizontal=1;startSize=50;horizontalStack=0;rounded=0;fontSize=14;fontStyle=0;strokeWidth=1;resizeParent=0;resizeLast=1;shadow=0;dashed=0;align=center;arcSize=4;whiteSpace=wrap;html=1;" parent="1" vertex="1">
          <mxGeometry x="459" y="669" width="120" height="125" as="geometry" />
        </mxCell>
        <mxCell id="YZHA83_D1_kwzSXFL9r3-16" value="&lt;u&gt;DateCours&lt;/u&gt;&lt;div&gt;&lt;u&gt;HeureDebutCours&lt;/u&gt;&lt;/div&gt;&lt;div&gt;HeureFinCours&lt;/div&gt;&lt;div&gt;IdMatiere&lt;/div&gt;" style="align=left;strokeColor=none;fillColor=none;spacingLeft=4;fontSize=12;verticalAlign=top;resizable=0;rotatable=0;part=1;html=1;" parent="YZHA83_D1_kwzSXFL9r3-15" vertex="1">
          <mxGeometry y="50" width="120" height="75" as="geometry" />
        </mxCell>
        <mxCell id="YZHA83_D1_kwzSXFL9r3-18" value="MATIERE" style="swimlane;childLayout=stackLayout;horizontal=1;startSize=50;horizontalStack=0;rounded=0;fontSize=14;fontStyle=0;strokeWidth=1;resizeParent=0;resizeLast=1;shadow=0;dashed=0;align=center;arcSize=4;whiteSpace=wrap;html=1;" parent="1" vertex="1">
          <mxGeometry x="590" y="440" width="120" height="145" as="geometry" />
        </mxCell>
        <mxCell id="YZHA83_D1_kwzSXFL9r3-19" value="&lt;u&gt;IdMat&lt;/u&gt;&lt;div&gt;NomMat&lt;/div&gt;&lt;div&gt;NbHeureMat&lt;/div&gt;&lt;div&gt;IdNiveauMat&lt;/div&gt;&lt;div&gt;IdEns&lt;/div&gt;" style="align=left;strokeColor=none;fillColor=none;spacingLeft=4;fontSize=12;verticalAlign=top;resizable=0;rotatable=0;part=1;html=1;" parent="YZHA83_D1_kwzSXFL9r3-18" vertex="1">
          <mxGeometry y="50" width="120" height="95" as="geometry" />
        </mxCell>
        <mxCell id="YZHA83_D1_kwzSXFL9r3-20" value="ENSEIGNANT" style="swimlane;childLayout=stackLayout;horizontal=1;startSize=50;horizontalStack=0;rounded=0;fontSize=14;fontStyle=0;strokeWidth=1;resizeParent=0;resizeLast=1;shadow=0;dashed=0;align=center;arcSize=4;whiteSpace=wrap;html=1;" parent="1" vertex="1">
          <mxGeometry x="580" y="90" width="120" height="120" as="geometry" />
        </mxCell>
        <mxCell id="YZHA83_D1_kwzSXFL9r3-21" value="&lt;u&gt;IdEns&lt;/u&gt;&lt;div&gt;NomEns&lt;/div&gt;&lt;div&gt;PrenomEns&lt;/div&gt;" style="align=left;strokeColor=none;fillColor=none;spacingLeft=4;fontSize=12;verticalAlign=top;resizable=0;rotatable=0;part=1;html=1;" parent="YZHA83_D1_kwzSXFL9r3-20" vertex="1">
          <mxGeometry y="50" width="120" height="70" as="geometry" />
        </mxCell>
        <mxCell id="YZHA83_D1_kwzSXFL9r3-22" style="edgeStyle=orthogonalEdgeStyle;rounded=0;orthogonalLoop=1;jettySize=auto;html=1;exitX=0.5;exitY=1;exitDx=0;exitDy=0;entryX=0;entryY=0.5;entryDx=0;entryDy=0;" parent="1" source="YZHA83_D1_kwzSXFL9r3-5" target="YZHA83_D1_kwzSXFL9r3-7" edge="1">
          <mxGeometry relative="1" as="geometry" />
        </mxCell>
        <mxCell id="YZHA83_D1_kwzSXFL9r3-25" style="edgeStyle=orthogonalEdgeStyle;rounded=0;orthogonalLoop=1;jettySize=auto;html=1;exitX=0;exitY=0.5;exitDx=0;exitDy=0;entryX=0.5;entryY=0;entryDx=0;entryDy=0;" parent="1" source="YZHA83_D1_kwzSXFL9r3-5" target="YZHA83_D1_kwzSXFL9r3-10" edge="1">
          <mxGeometry relative="1" as="geometry" />
        </mxCell>
        <mxCell id="YZHA83_D1_kwzSXFL9r3-26" style="edgeStyle=orthogonalEdgeStyle;rounded=0;orthogonalLoop=1;jettySize=auto;html=1;exitX=1;exitY=0.5;exitDx=0;exitDy=0;entryX=1;entryY=0.5;entryDx=0;entryDy=0;" parent="1" source="YZHA83_D1_kwzSXFL9r3-19" target="YZHA83_D1_kwzSXFL9r3-21" edge="1">
          <mxGeometry relative="1" as="geometry" />
        </mxCell>
        <mxCell id="YZHA83_D1_kwzSXFL9r3-27" style="edgeStyle=orthogonalEdgeStyle;rounded=0;orthogonalLoop=1;jettySize=auto;html=1;exitX=1;exitY=0.5;exitDx=0;exitDy=0;entryX=0.5;entryY=1;entryDx=0;entryDy=0;" parent="1" source="YZHA83_D1_kwzSXFL9r3-16" target="YZHA83_D1_kwzSXFL9r3-19" edge="1">
          <mxGeometry relative="1" as="geometry" />
        </mxCell>
        <mxCell id="YZHA83_D1_kwzSXFL9r3-28" style="edgeStyle=orthogonalEdgeStyle;rounded=0;orthogonalLoop=1;jettySize=auto;html=1;" parent="1" source="YZHA83_D1_kwzSXFL9r3-14" target="YZHA83_D1_kwzSXFL9r3-16" edge="1">
          <mxGeometry relative="1" as="geometry" />
        </mxCell>
        <mxCell id="u5dcyIG3U-C1yBvSZp2E-3" style="edgeStyle=orthogonalEdgeStyle;rounded=0;orthogonalLoop=1;jettySize=auto;html=1;exitX=0.5;exitY=0;exitDx=0;exitDy=0;entryX=1;entryY=0.5;entryDx=0;entryDy=0;" parent="1" source="u5dcyIG3U-C1yBvSZp2E-1" target="YZHA83_D1_kwzSXFL9r3-2" edge="1">
          <mxGeometry relative="1" as="geometry" />
        </mxCell>
        <mxCell id="u5dcyIG3U-C1yBvSZp2E-1" value="PARCOURS_NIVEAU_MATIERE" style="swimlane;childLayout=stackLayout;horizontal=1;startSize=50;horizontalStack=0;rounded=0;fontSize=14;fontStyle=0;strokeWidth=1;resizeParent=0;resizeLast=1;shadow=0;dashed=0;align=center;arcSize=4;whiteSpace=wrap;html=1;" parent="1" vertex="1">
          <mxGeometry x="414" y="260" width="210" height="120" as="geometry" />
        </mxCell>
        <mxCell id="u5dcyIG3U-C1yBvSZp2E-2" value="&lt;u&gt;IdParcours&lt;/u&gt;&lt;div&gt;&lt;u&gt;IdNiveau&lt;/u&gt;&lt;/div&gt;&lt;div&gt;&lt;u&gt;IdMat&lt;/u&gt;&lt;/div&gt;" style="align=left;strokeColor=none;fillColor=none;spacingLeft=4;fontSize=12;verticalAlign=top;resizable=0;rotatable=0;part=1;html=1;" parent="u5dcyIG3U-C1yBvSZp2E-1" vertex="1">
          <mxGeometry y="50" width="210" height="70" as="geometry" />
        </mxCell>
        <mxCell id="u5dcyIG3U-C1yBvSZp2E-4" style="edgeStyle=orthogonalEdgeStyle;rounded=0;orthogonalLoop=1;jettySize=auto;html=1;entryX=1;entryY=0.5;entryDx=0;entryDy=0;" parent="1" source="u5dcyIG3U-C1yBvSZp2E-2" target="YZHA83_D1_kwzSXFL9r3-7" edge="1">
          <mxGeometry relative="1" as="geometry" />
        </mxCell>
        <mxCell id="Q3fLJqGjarMg9U4vxYWu-2" style="edgeStyle=orthogonalEdgeStyle;rounded=0;orthogonalLoop=1;jettySize=auto;html=1;exitX=1;exitY=0.5;exitDx=0;exitDy=0;entryX=0.5;entryY=0;entryDx=0;entryDy=0;" parent="1" source="u5dcyIG3U-C1yBvSZp2E-2" target="YZHA83_D1_kwzSXFL9r3-18" edge="1">
          <mxGeometry relative="1" as="geometry" />
        </mxCell>
      </root>
    </mxGraphModel>
  </diagram>
</mxfile>
